<svg width="832" height="910" viewBox="0 0 832 910" fill="none" xmlns="http://www.w3.org/2000/svg">
<g opacity="0.79">
<rect opacity="0.0388889" x="151.167" y="251.493" width="561.606" height="712.458" rx="29" transform="rotate(-57.256 151.167 251.493)" fill="#FB8500"/>
<rect opacity="0.0777778" x="145.479" y="248.501" width="561.606" height="712.457" rx="29" transform="rotate(-52.256 145.479 248.501)" fill="#FB8500"/>
<rect opacity="0.116667" x="139.792" y="245.51" width="561.606" height="712.457" rx="29" transform="rotate(-47.256 139.792 245.51)" fill="#FB8500"/>
<rect opacity="0.155556" x="134.105" y="242.519" width="561.606" height="712.457" rx="29" transform="rotate(-42.256 134.105 242.519)" fill="#FB8500"/>
<rect opacity="0.194444" x="128.418" y="239.527" width="561.606" height="712.457" rx="29" transform="rotate(-37.256 128.418 239.527)" fill="#FB8500"/>
<rect opacity="0.233333" x="122.731" y="236.536" width="561.606" height="712.458" rx="29" transform="rotate(-32.256 122.731 236.536)" fill="#FB8500"/>
<rect opacity="0.272222" x="117.044" y="233.545" width="561.606" height="712.457" rx="29" transform="rotate(-27.256 117.044 233.545)" fill="#FB8500"/>
<rect opacity="0.311111" x="111.357" y="230.553" width="561.606" height="712.457" rx="29" transform="rotate(-22.256 111.357 230.553)" fill="#FB8500"/>
<rect opacity="0.35" x="105.67" y="227.562" width="561.606" height="712.457" rx="29" transform="rotate(-17.256 105.67 227.562)" fill="#FB8500"/>
</g>
</svg>
